<?xml version="1.0" encoding="utf-8"?>
<!DOCTYPE svg PUBLIC "-//W3C//DTD SVG 1.1//EN" "http://www.w3.org/Graphics/SVG/1.1/DTD/svg11.dtd">
<svg version="1.1" xmlns="http://www.w3.org/2000/svg" xmlns:xlink="http://www.w3.org/1999/xlink" x="0px" y="0px" width="16px" height="12px" viewBox="0 0 16 12" enable-background="new 0 0 16 12" xml:space="preserve">
<polygon fill="#222" points="16,5 15,5 15,4 14,4 14,3 13,3 13,2 12,2 12,1 11,1 11,0 9,0 9,2 10,2 10,3 11,3 11,4 12,4 12,5 
	0,5 0,7 12,7 12,8 11,8 11,9 10,9 10,10 9,10 9,12 11,12 11,11 12,11 12,10 13,10 13,9 14,9 14,8 15,8 15,7 16,7 "/>
</svg>
