<?xml version="1.0" encoding="utf-8"?>
<!DOCTYPE svg PUBLIC "-//W3C//DTD SVG 1.1//EN" "http://www.w3.org/Graphics/SVG/1.1/DTD/svg11.dtd">
<svg version="1.1" xmlns="http://www.w3.org/2000/svg" xmlns:xlink="http://www.w3.org/1999/xlink" x="0px" y="0px" width="16px" height="10px" viewBox="0 0 16 10" enable-background="new 0 0 16 10" xml:space="preserve">
<polygon fill="#222" points="16,0 14,0 14,1 13,1 13,2 12,2 12,3 11,3 11,4 10,4 10,5 9,5 9,6 8,6 8,7 7,7 6,7 6,6 5,6 5,5 4,5 
	4,4 3,4 3,3 2,3 2,2 0,2 0,4 1,4 1,5 2,5 2,6 3,6 3,7 4,7 4,8 5,8 5,9 6,9 6,10 8,10 8,9 9,9 9,8 10,8 10,7 11,7 11,6 12,6 12,5 
	13,5 13,4 14,4 14,3 15,3 15,2 16,2 "/>
</svg>
