<?xml version="1.0" encoding="utf-8"?>
<svg version="1.1" xmlns="http://www.w3.org/2000/svg" xmlns:xlink="http://www.w3.org/1999/xlink" x="0px" y="0px" viewBox="0 0 14 14" style="enable-background:new 0 0 14 14;" xml:space="preserve">
<style type="text/css">
	.st0{fill:#222;}
</style>
<polygon class="st0" points="9,6 10,6 10,5 11,5 11,4 12,4 12,3 13,3 13,2 14,2 14,0 12,0 12,1 11,1 11,2 10,2 10,3 9,3 9,4 8,4 
	8,5 6,5 6,4 5,4 5,3 4,3 4,2 3,2 3,1 2,1 2,0 0,0 0,2 1,2 1,3 2,3 2,4 3,4 3,5 4,5 4,6 5,6 5,8 4,8 4,9 3,9 3,10 2,10 2,11 1,11 
	1,12 0,12 0,14 2,14 2,13 3,13 3,12 4,12 4,11 5,11 5,10 6,10 6,9 8,9 8,10 9,10 9,11 10,11 10,12 11,12 11,13 12,13 12,14 14,14 
	14,12 13,12 13,11 12,11 12,10 11,10 11,9 10,9 10,8 9,8 "/>
</svg>
